# xmcd
#
# Track frame offsets:
#	150
#	13271
#	30899
#	45815
#	60666
#	74913
#	88912
#	101515
#
# Disc length: 1590 seconds
#
# Revision: 1
# Processed by: cddbd v1.5.1PL0 Copyright (c) Steve Scherf et al.
# Submitted via: audiograbber 1.83.01
#
DISCID=62063408
DTITLE=Ronnie Crutches - Dig In
DYEAR=1900
DGENRE=Rock and Roll
TTITLE0=Way Past Gone
TTITLE1=Big Dan
TTITLE2=It's A Scorcher Out There
TTITLE3=Another Goodbye
TTITLE4=Just One Kiss
TTITLE5=Annie Bell
TTITLE6=They Oughtta Call
TTITLE7=Stop, Drop, and Roll
EXTD=
EXTT0=
EXTT1=
EXTT2=
EXTT3=
EXTT4=
EXTT5=
EXTT6=
EXTT7=
PLAYORDER=
